<?xml version="1.0" encoding="UTF-8"?>
<svg viewBox="0 0 70 70" version="1.1" xmlns="http://www.w3.org/2000/svg" xmlns:xlink="http://www.w3.org/1999/xlink">
    <defs>
        <linearGradient x1="0%" y1="0%" x2="97.7085899%" y2="100%" id="linearGradient-1">
            <stop stop-color="#4083DB" offset="0%"></stop>
            <stop stop-color="#2D6BBC" offset="100%"></stop>
        </linearGradient>
        <circle id="path-2" cx="35" cy="35" r="35"></circle>
        <linearGradient x1="100%" y1="88.1620313%" x2="50%" y2="0%" id="linearGradient-4">
            <stop stop-color="#4083DB" offset="0%"></stop>
            <stop stop-color="#40AADB" offset="100%"></stop>
        </linearGradient>
    </defs>
    <g stroke="none" stroke-width="1" fill="none" fill-rule="evenodd">
        <g id="Path-16">
            <mask id="mask-3" fill="white">
                <use xlink:href="#path-2"></use>
            </mask>
            <use id="Mask" fill="url(#linearGradient-1)" xlink:href="#path-2"></use>
            <path d="M0,67.6467801 C0,21.2442324 12.263012,9.64359548 36.7890359,32.8448693 C58.6655597,56.0461432 69.6038216,44.4455063 69.6038216,-1.95704145 C69.6038216,-48.3595892 69.9951403,-24.990312 70.7777778,68.1507902 L16.6285279,72.1688128 C5.54284263,115.556672 1.56233768e-15,114.049328 0,67.6467801 Z" fill="url(#linearGradient-4)" mask="url(#mask-3)"></path>
        </g>
        <g id="Robot" transform="translate(19.444444, 20.222222)" fill="#FFFFFF">
            <path d="M1.11111111,0 L30,-2.22044605e-16 C30.6136497,-3.3477023e-16 31.1111111,0.497461389 31.1111111,1.11111111 L31.1111111,29.2222222 C31.1111111,29.8358719 30.6136497,30.3333333 30,30.3333333 L1.11111111,30.3333333 C0.497461389,30.3333333 2.20480156e-15,29.8358719 2.22044605e-16,29.2222222 L-2.22044605e-16,1.11111111 C-2.97195022e-16,0.497461389 0.497461389,3.3477023e-16 1.11111111,2.22044605e-16 Z M21.6666667,13.4814815 C23.200791,13.4814815 24.4444444,12.2240096 24.4444444,10.6728395 C24.4444444,9.12166938 23.200791,7.86419753 21.6666667,7.86419753 C20.1325424,7.86419753 18.8888889,9.12166938 18.8888889,10.6728395 C18.8888889,12.2240096 20.1325424,13.4814815 21.6666667,13.4814815 Z M9.44444444,13.4814815 C10.9785687,13.4814815 12.2222222,12.2240096 12.2222222,10.6728395 C12.2222222,9.12166938 10.9785687,7.86419753 9.44444444,7.86419753 C7.91032014,7.86419753 6.66666667,9.12166938 6.66666667,10.6728395 C6.66666667,12.2240096 7.91032014,13.4814815 9.44444444,13.4814815 Z M9.44677365,21.954252 C8.25250302,20.6237178 12.437215,21.8122958 15.3450388,21.954252 C18.1312447,22.090271 22.2917903,20.1694021 21.4961567,21.4448741 C17.5366952,24.5066943 12.4555635,24.4724594 9.44677365,21.954252 Z" id="Combined-Shape"></path>
        </g>
    </g>
</svg>