<?xml version="1.0" encoding="UTF-8"?>
<svg viewBox="0 0 45 45" version="1.1" xmlns="http://www.w3.org/2000/svg" xmlns:xlink="http://www.w3.org/1999/xlink">
    <g stroke="none" stroke-width="1" fill="#FFFFFF" fill-rule="evenodd" opacity="0.897927989">
        <path d="M22.5,45 C10.0735931,45 0,34.9264069 0,22.5 C0,10.0735931 10.0735931,0 22.5,0 C34.9264069,0 45,10.0735931 45,22.5 C45,34.9264069 34.9264069,45 22.5,45 Z M23.996,17.344 C23.996,16.8319974 24.1159988,16.4440013 24.356,16.18 C24.5960012,15.9159987 24.8999982,15.784 25.268,15.784 C25.9080032,15.784 26.4919974,16.087997 27.02,16.696 L28.316,14.272 C27.2759948,13.3119952 26.1200064,12.832 24.848,12.832 C23.5759936,12.832 22.5120043,13.2439959 21.656,14.068 C20.7999957,14.8920041 20.372,16.007993 20.372,17.416 L20.372,18.208 L18.86,18.208 L18.86,20.8 L20.372,20.8 L20.372,31 L23.996,31 L23.996,20.8 L27.116,20.8 L27.116,18.208 L23.996,18.208 L23.996,17.344 Z"></path>
    </g>
</svg>