<?xml version="1.0" encoding="UTF-8"?>
<svg width="45px" height="45px" viewBox="0 0 45 45" version="1.1" xmlns="http://www.w3.org/2000/svg" xmlns:xlink="http://www.w3.org/1999/xlink">
    <!-- Generator: Sketch 57.1 (83088) - https://sketch.com -->
    <title>github-with-circle</title>
    <desc>Created with Sketch.</desc>
    <g id="Page-1" stroke="none" stroke-width="1" fill="none" fill-rule="evenodd" fill-opacity="0.9">
        <g id="Artboard" transform="translate(-42.000000, -37.000000)" fill="#FFFFFF" fill-rule="nonzero">
            <g id="github-with-circle" transform="translate(42.000000, 37.000000)">
                <path d="M22.53375,22.38525 C22.53375,22.38525 22.51125,22.38525 22.5,22.38525 L22.46625,22.38525 C19.7865,22.38525 17.42625,21.7035 16.029,22.98825 C15.19425,23.75775 14.84325,24.68475 14.84325,25.6815 C14.84325,29.8485 18.18,30.3615 22.4685,30.3615 L22.53375,30.3615 C26.82,30.3615 30.159,29.84625 30.159,25.6815 C30.159,24.68475 29.808,23.7555 28.97325,22.98825 C27.57375,21.7035 25.2135,22.38525 22.53375,22.38525 Z M18.88425,28.08 C18.0675,28.08 17.40825,27.162 17.40825,26.0325 C17.40825,24.903 18.0675,23.9895 18.88425,23.9895 C19.701,23.9895 20.3625057,24.903 20.3625057,26.0325 C20.36475,27.162 19.70325,28.08 18.88425,28.08 Z M26.1135,28.08 C25.29675,28.08 24.63525,27.162 24.63525,26.0325 C24.63525,24.903 25.29675,23.9895 26.1135,23.9895 C26.928,23.9895 27.5895057,24.903 27.5895057,26.0325 C27.59175,27.162 26.93025,28.08 26.1135,28.08 Z M22.5,0.9 C10.5705,0.9 0.9,10.5705 0.9,22.5 C0.9,34.4295 10.5705,44.1 22.5,44.1 C34.4295,44.1 44.1,34.4295 44.1,22.5 C44.1,10.5705 34.4295,0.9 22.5,0.9 Z M24.471,31.36275 C24.084,31.36275 23.3145,31.36275 22.5,31.36725 C21.6855,31.36275 20.916,31.36275 20.529,31.36275 C18.819,31.36275 12.042,31.23 12.042,23.0625 C12.042,21.186 12.6855,19.81125 13.74075,18.66375 C13.57425,18.24975 13.56525,15.89175 14.46075,13.63275 C14.46075,13.63275 16.52175,13.85775 19.638,15.9975 C20.28825,15.81525 21.39525,15.723 22.5,15.723 C23.60475,15.723 24.7095,15.81525 25.36425,15.99525 C28.4805,13.8555 30.5415,13.6305 30.5415,13.6305 C31.437,15.8895 31.43025,18.24975 31.2615,18.6615 C32.31675,19.809 32.96025,21.18375 32.96025,23.06025 C32.958,31.23225 26.181,31.36275 24.471,31.36275 Z" id="Shape"></path>
            </g>
        </g>
    </g>
</svg>