<?xml version="1.0" encoding="UTF-8"?>
<svg viewBox="0 0 45 45" version="1.1" xmlns="http://www.w3.org/2000/svg" xmlns:xlink="http://www.w3.org/1999/xlink">
    <g stroke="none" stroke-width="1" fill="#FFFFFF" fill-rule="evenodd" opacity="0.897927989">
        <path d="M22.5,45 C10.0735931,45 0,34.9264069 0,22.5 C0,10.0735931 10.0735931,0 22.5,0 C34.9264069,0 45,10.0735931 45,22.5 C45,34.9264069 34.9264069,45 22.5,45 Z M18.272,31 L18.272,18.088 L14.672,18.088 L14.672,31 L18.272,31 Z M14.96,16.456 C15.3760021,16.856002 15.879997,17.056 16.472,17.056 C17.0640029,17.056 17.5639979,16.852002 17.972,16.444 C18.380002,16.035998 18.584,15.536003 18.584,14.944 C18.584,14.351997 18.380002,13.852002 17.972,13.444 C17.5639979,13.035998 17.0640029,12.832 16.472,12.832 C15.879997,12.832 15.380002,13.035998 14.972,13.444 C14.5639979,13.852002 14.36,14.351997 14.36,14.944 C14.36,15.536003 14.559998,16.0399979 14.96,16.456 Z M24.64,23.8 C24.64,22.791995 24.9079973,22.0280026 25.444,21.508 C25.9800027,20.9879974 26.6079964,20.728 27.328,20.728 C28.7840073,20.728 29.512,21.7199901 29.512,23.704 L29.512,31 L33.112,31 L33.112,23.152 C33.112,21.551992 32.6520046,20.2720048 31.732,19.312 C30.8119954,18.3519952 29.6720068,17.872 28.312,17.872 C26.9519932,17.872 25.7280054,18.4239945 24.64,19.528 L24.64,18.088 L21.04,18.088 L21.04,31 L24.64,31 L24.64,23.8 Z" id="Combined-Shape"></path>
    </g>
</svg>