<?xml version="1.0" encoding="UTF-8"?>
<svg viewBox="0 0 70 70" version="1.1" xmlns="http://www.w3.org/2000/svg" xmlns:xlink="http://www.w3.org/1999/xlink">
    <defs>
        <linearGradient x1="0%" y1="0%" x2="97.7085899%" y2="100%" id="linearGradient-1">
            <stop stop-color="#4083DB" offset="0%"></stop>
            <stop stop-color="#2D6BBC" offset="100%"></stop>
        </linearGradient>
        <circle id="path-2" cx="35" cy="35" r="35"></circle>
        <linearGradient x1="100%" y1="88.1620313%" x2="50%" y2="0%" id="linearGradient-4">
            <stop stop-color="#4083DB" offset="0%"></stop>
            <stop stop-color="#40AADB" offset="100%"></stop>
        </linearGradient>
    </defs>
    <g stroke="none" stroke-width="1" fill="none" fill-rule="evenodd">
        <mask id="mask-3" fill="white">
            <use xlink:href="#path-2"></use>
        </mask>
        <use id="Mask" fill="url(#linearGradient-1)" xlink:href="#path-2"></use>
        <path d="M0,67.6467801 C0,21.2442324 12.263012,9.64359548 36.7890359,32.8448693 C58.6655597,56.0461432 69.6038216,44.4455063 69.6038216,-1.95704145 C69.6038216,-48.3595892 69.9951403,-24.990312 70.7777778,68.1507902 L16.6285279,72.1688128 C5.54284263,115.556672 1.56233768e-15,114.049328 0,67.6467801 Z" fill="url(#linearGradient-4)" mask="url(#mask-3)"></path>
        <g transform="translate(21.777778, 20.222222)" fill="#FFFFFF">
            <path d="M2.33333333,0 L24.8888889,0 C25.7479985,-1.68390111e-15 26.4444444,0.696445945 26.4444444,1.55555556 L26.4444444,28.7777778 C26.4444444,29.6368874 25.7479985,30.3333333 24.8888889,30.3333333 L2.33333333,30.3333333 L2.33333333,0 Z M7,6.22222222 C6.57044519,6.22222222 6.22222222,6.57044519 6.22222222,7 C6.22222222,7.42955481 6.57044519,7.77777778 7,7.77777778 L21.7777778,7.77777778 C22.2073326,7.77777778 22.5555556,7.42955481 22.5555556,7 C22.5555556,6.57044519 22.2073326,6.22222222 21.7777778,6.22222222 L7,6.22222222 Z M7,9.33333333 C6.57044519,9.33333333 6.22222222,9.68155631 6.22222222,10.1111111 C6.22222222,10.5406659 6.57044519,10.8888889 7,10.8888889 L21.7777778,10.8888889 C22.2073326,10.8888889 22.5555556,10.5406659 22.5555556,10.1111111 C22.5555556,9.68155631 22.2073326,9.33333333 21.7777778,9.33333333 L7,9.33333333 Z M7,13.2222222 C6.57044519,13.2222222 6.22222222,13.5704452 6.22222222,14 C6.22222222,14.4295548 6.57044519,14.7777778 7,14.7777778 L21.7777778,14.7777778 C22.2073326,14.7777778 22.5555556,14.4295548 22.5555556,14 C22.5555556,13.5704452 22.2073326,13.2222222 21.7777778,13.2222222 L7,13.2222222 Z M7,16.3333333 C6.57044519,16.3333333 6.22222222,16.6815563 6.22222222,17.1111111 C6.22222222,17.5406659 6.57044519,17.8888889 7,17.8888889 L21.7777778,17.8888889 C22.2073326,17.8888889 22.5555556,17.5406659 22.5555556,17.1111111 C22.5555556,16.6815563 22.2073326,16.3333333 21.7777778,16.3333333 L7,16.3333333 Z"></path>
            <path d="M1.55555556,0 L2.33333333,0 L2.33333333,30.3333333 L1.55555556,30.3333333 C0.696445945,30.3333333 -1.16834021e-16,29.6368874 -2.22044605e-16,28.7777778 L-2.22044605e-16,1.55555556 C-3.27255188e-16,0.696445945 0.696445945,1.2680389e-15 1.55555556,1.11022302e-15 Z" fill-opacity="0.753679801"></path>
        </g>
    </g>
</svg>