<?xml version="1.0" encoding="UTF-8"?>
<svg viewBox="0 0 70 70" version="1.1" xmlns="http://www.w3.org/2000/svg" xmlns:xlink="http://www.w3.org/1999/xlink">
    <defs>
        <linearGradient x1="0%" y1="0%" x2="97.7085899%" y2="100%" id="linearGradient-1">
            <stop stop-color="#4083DB" offset="0%"></stop>
            <stop stop-color="#2D6BBC" offset="100%"></stop>
        </linearGradient>
        <circle id="path-2" cx="35" cy="35" r="35"></circle>
        <linearGradient x1="100%" y1="88.1620313%" x2="50%" y2="0%" id="linearGradient-4">
            <stop stop-color="#4083DB" offset="0%"></stop>
            <stop stop-color="#40AADB" offset="100%"></stop>
        </linearGradient>
    </defs>
    <g stroke="none" stroke-width="1" fill="none" fill-rule="evenodd">
        <mask id="mask-3" fill="white">
            <use xlink:href="#path-2"></use>
        </mask>
        <use id="Mask" fill="url(#linearGradient-1)" xlink:href="#path-2"></use>
        <path d="M0,67.6467801 C0,21.2442324 12.263012,9.64359548 36.7890359,32.8448693 C58.6655597,56.0461432 69.6038216,44.4455063 69.6038216,-1.95704145 C69.6038216,-48.3595892 69.9951403,-24.990312 70.7777778,68.1507902 L16.6285279,72.1688128 C5.54284263,115.556672 1.56233768e-15,114.049328 0,67.6467801 Z" fill="url(#linearGradient-4)" mask="url(#mask-3)"></path>
        <g transform="translate(18.000000, 19.000000)" fill="#FFFFFF" fill-rule="nonzero">
            <path d="M25,23.3425301 C23.734,23.3425301 22.592,23.8315663 21.726,24.6187952 L9.85,17.7345181 C9.942,17.3607831 10,16.9711446 10,16.5735542 C10,16.1759639 9.942,15.7883133 9.85,15.4145783 L21.6,8.59789157 C22.492,9.42686747 23.684,9.93975904 25,9.93975904 C27.758,9.93975904 30,7.71126506 30,4.96987952 C30,2.22849398 27.758,0 25,0 C22.242,0 20,2.22849398 20,4.96987952 C20,5.36746988 20.058,5.75710843 20.15,6.12885542 L8.4,12.9455422 C7.508,12.1185542 6.316,11.6036747 5,11.6036747 C2.242,11.6036747 0,13.8321687 0,16.5735542 C0,19.3149398 2.242,21.5434337 5,21.5434337 C6.316,21.5434337 7.508,21.0305422 8.4,20.2015663 L20.276,27.0858434 C20.192,27.4337349 20.142,27.7975301 20.142,28.1712651 C20.142,30.8390964 22.316,33 25,33 C27.684,33 29.858,30.8371084 29.858,28.1712651 C29.858,25.5054217 27.684,23.3425301 25,23.3425301 Z"></path>
        </g>
    </g>
</svg>