<?xml version="1.0" encoding="UTF-8"?>
<svg width="45px" height="45px" viewBox="0 0 45 45" version="1.1" xmlns="http://www.w3.org/2000/svg" xmlns:xlink="http://www.w3.org/1999/xlink">
    <!-- Generator: Sketch 52.4 (67378) - http://www.bohemiancoding.com/sketch -->
    <title>Group 10</title>
    <desc>Created with Sketch.</desc>
    <g id="Website/Marketing" stroke="none" stroke-width="1" fill="none" fill-rule="evenodd">
        <g id="Landing-Page" transform="translate(-1230.000000, -3036.000000)">
            <g id="Footer" transform="translate(0.000000, 2900.000000)">
                <g id="Group-10" transform="translate(1230.000000, 136.000000)">
                    <circle id="Oval-21" fill="#FFFFFF" opacity="0.897927989" cx="22.5" cy="22.5" r="22.5"></circle>
                    <path d="M33.6170407,25.8524771 L31.0840441,26.6946584 L31.9596479,29.3147778 C32.3036351,30.3753024 31.7407469,31.5294026 30.6775138,31.8725135 C30.4586128,31.9348973 30.2084403,31.9972811 29.9895394,31.9660892 C29.1764787,31.9348973 28.3946897,31.4046351 28.1132456,30.5936457 L27.2376418,27.9735262 L22.0152908,29.7202725 L22.8908945,32.340392 C23.2348817,33.4009166 22.6719936,34.5550168 21.6087604,34.8981277 C21.3898595,34.9605115 21.139687,35.0228953 20.9207861,34.9917034 C20.1077254,34.9605115 19.3259363,34.4302492 19.0444923,33.6192598 L18.1688885,30.9991404 L15.6358919,31.8413216 C15.4169909,31.9037054 15.1668184,31.9660892 14.9479175,31.9348973 C14.1348569,31.9037054 13.3530678,31.3734432 13.0716237,30.5624538 C12.7276365,29.5019292 13.2905246,28.347829 14.3537578,28.0047181 L16.8867544,27.1625368 L15.19809,22.1406412 L12.6650934,22.9828224 C12.4461924,23.0452062 12.1960199,23.10759 11.977119,23.0763981 C11.1640584,23.0452062 10.3822693,22.514944 10.1008252,21.7039546 C9.75683801,20.6434301 10.3197261,19.4893298 11.3829593,19.1462189 L13.9159559,18.3040377 L13.0403521,15.6839182 C12.6963649,14.6233936 13.2592531,13.4692934 14.3224862,13.1261825 C15.3857194,12.7830716 16.5427672,13.3445258 16.8867544,14.4050503 L17.7623582,17.0251698 L22.9847092,15.2784235 L22.1091055,12.658304 C21.7651183,11.5977795 22.3280064,10.4436792 23.3912396,10.1005684 C24.4544727,9.75745747 25.6115205,10.3189116 25.9555077,11.3794362 L26.8311115,13.9995557 L29.3641081,13.1573744 C30.4273413,12.8142635 31.5843891,13.3757177 31.9283763,14.4362422 C32.2723635,15.4967668 31.7094754,16.650867 30.6462422,16.9939779 L28.1132456,17.8361592 L29.80191,22.8580549 L32.3349066,22.0158736 C33.3981398,21.6727627 34.5551876,22.2342169 34.8991748,23.2947414 C35.243162,24.355266 34.6802739,25.5093662 33.6170407,25.8524771 Z M19.0302575,20.9025911 L20.7186717,25.930538 L25.9373702,24.1869857 L24.248956,19.1590388 L19.0302575,20.9025911 Z" id="Combined-Shape" fill="#000000" fill-rule="nonzero"></path>
                </g>
            </g>
        </g>
    </g>
</svg>