<?xml version="1.0" encoding="UTF-8"?>
<svg viewBox="0 0 45 45" version="1.1" xmlns="http://www.w3.org/2000/svg" xmlns:xlink="http://www.w3.org/1999/xlink">
    <g stroke="none" stroke-width="1" fill="#FFFFFF" fill-rule="evenodd" opacity="0.897927989">
        <path d="M22.5,45 C10.0735931,45 0,34.9264069 0,22.5 C0,10.0735931 10.0735931,0 22.5,0 C34.9264069,0 45,10.0735931 45,22.5 C45,34.9264069 34.9264069,45 22.5,45 Z M34,14 C33.042385,14.6754774 31.9821079,15.1921092 30.86,15.53 C29.6263595,14.1115378 27.63837,13.6141143 25.8820815,14.2844534 C24.125793,14.9547926 22.9748003,16.6503009 23,18.53 L23,19.53 C19.4306648,19.6225524 16.0520253,17.9219705 14,15 C14,15 10,24 19,28 C16.9405276,29.3979663 14.4871569,30.0989294 12,30 C21,35 32,30 32,18.5 C31.9990791,18.2214536 31.9722975,17.9435944 31.92,17.67 C32.9406031,16.6634931 33.6608274,15.3927128 34,14 Z" id="Combined-Shape"></path>
    </g>
</svg>